<svg width="68" height="16" viewBox="0 0 68 16" fill="none" xmlns="http://www.w3.org/2000/svg">
<path d="M56.7698 1.70468C56.7702 1.63215 56.7512 1.56082 56.7149 1.49805L54.0276 3.01424V5.83889C54.0235 5.86906 54.0279 5.89977 54.0402 5.92761C54.0526 5.95545 54.0723 5.97933 54.0974 5.99661C54.1245 6.01084 54.155 6.01757 54.1856 6.01612C54.2162 6.01467 54.2459 6.00509 54.2716 5.98837L56.5583 4.69969C56.6242 4.66445 56.6789 4.61153 56.7164 4.54688C56.7539 4.48222 56.7726 4.40839 56.7704 4.33369L56.7698 1.70468Z" fill="url(#paint0_linear_0_10)"/>
<path d="M54.0249 6.21222e-08C54.1156 -4.15553e-05 54.2051 0.0208279 54.2864 0.0609952L56.55 1.34033C56.6178 1.37763 56.6746 1.432 56.7149 1.49805L54.0276 3.01424L51.5843 1.63654C51.5488 1.62105 51.5179 1.59641 51.495 1.56514C51.472 1.53386 51.4577 1.49707 51.4535 1.45848C51.4557 1.42229 51.4683 1.38748 51.4897 1.35824C51.5112 1.32899 51.5406 1.30656 51.5744 1.29362L53.7479 0.0675861C53.8343 0.0253444 53.9288 0.00229364 54.0249 6.21222e-08Z" fill="url(#paint1_linear_0_10)"/>
<path d="M4.57969 3.91879C5.15299 3.91226 5.72296 4.00675 6.26348 4.19796C6.75804 4.37286 7.20861 4.65329 7.58393 5.01978C7.95924 5.38627 8.25031 5.83004 8.43693 6.3203C8.65207 6.87897 8.75839 7.47363 8.75017 8.07224C8.75214 8.23862 8.74314 8.40493 8.72324 8.57012C8.71195 8.67768 8.67846 8.78172 8.62488 8.87567C8.5808 8.94888 8.51259 9.00447 8.43198 9.03284C8.33093 9.06566 8.22493 9.08053 8.11875 9.0768H2.77389C2.79961 9.69435 3.05108 10.281 3.4806 10.7254C3.88995 11.076 4.41708 11.2583 4.95558 11.2354C5.23831 11.2417 5.52024 11.2032 5.79088 11.1211C6.00596 11.0533 6.21543 10.9688 6.41736 10.8683C6.60054 10.7756 6.7676 10.6912 6.91854 10.615C7.06659 10.5395 7.23047 10.5003 7.39665 10.5007C7.4932 10.4948 7.58969 10.5132 7.67726 10.5543C7.76483 10.5954 7.84067 10.6578 7.89783 10.7359L8.70291 11.7069C8.43473 12.0117 8.12265 12.2749 7.77694 12.4878C7.45672 12.6848 7.11436 12.8432 6.75698 12.9599C6.41727 13.0719 6.06763 13.1512 5.71284 13.1967C5.3822 13.2389 5.04929 13.2607 4.71597 13.2621C4.09279 13.2677 3.47343 13.1641 2.88599 12.956C2.32925 12.7583 1.82035 12.4456 1.39234 12.0383C0.951384 11.6089 0.606879 11.0905 0.381724 10.5177C0.117278 9.84081 -0.0120998 9.11868 0.000889531 8.39208C-0.00388016 7.80233 0.102382 7.21695 0.314129 6.66651C0.522914 6.1282 0.839765 5.63837 1.24514 5.22723C1.65051 4.81609 2.13582 4.49236 2.67112 4.27599C3.27673 4.0295 3.92592 3.908 4.57969 3.91879ZM4.63464 5.78724C4.40856 5.7735 4.18202 5.80534 3.96848 5.88086C3.75494 5.95638 3.55875 6.07405 3.39157 6.22687C3.06678 6.57872 2.86021 7.02337 2.80081 7.49852H6.26294C6.26272 7.28544 6.2335 7.07339 6.17611 6.86819C6.12174 6.66912 6.0273 6.48324 5.89859 6.32194C5.76214 6.15531 5.58914 6.02237 5.39301 5.93342C5.1537 5.82944 4.89435 5.77971 4.63355 5.78779L4.63464 5.78724Z" fill="#1A2A36"/>
<path d="M24.8864 6.04223C24.8297 6.13759 24.7514 6.21833 24.6578 6.27799C24.5616 6.32924 24.4534 6.35354 24.3446 6.34832C24.2092 6.34759 24.0754 6.31956 23.9511 6.2659L23.529 6.0862C23.3611 6.01672 23.1894 5.95672 23.0147 5.90649C22.8018 5.84865 22.5818 5.82091 22.3613 5.82406C22.0779 5.80611 21.7958 5.87473 21.5523 6.0208C21.4626 6.08002 21.3895 6.16129 21.3401 6.25684C21.2908 6.35239 21.2668 6.45901 21.2704 6.56649C21.2686 6.64549 21.284 6.72392 21.3156 6.79634C21.3473 6.86875 21.3943 6.93341 21.4534 6.9858C21.5976 7.11068 21.7621 7.20993 21.9398 7.27925C22.1646 7.37195 22.3942 7.4523 22.6278 7.51995C22.8842 7.59506 23.1466 7.67969 23.4147 7.77385C23.6839 7.86754 23.9471 7.97765 24.2028 8.10357C24.4512 8.22491 24.6813 8.38048 24.8864 8.56573C25.0921 8.75369 25.2579 8.98113 25.3739 9.23453C25.5039 9.53166 25.5666 9.85389 25.5574 10.1781C25.5619 10.6049 25.4766 11.0279 25.3068 11.4195C25.1384 11.7998 24.8827 12.1352 24.5605 12.3983C24.1976 12.6887 23.7812 12.9053 23.3351 13.0357C22.7905 13.1958 22.2248 13.2725 21.6573 13.2632C21.3389 13.2628 21.0213 13.2334 20.7082 13.1753C20.3976 13.1184 20.0913 13.0399 19.7916 12.9401C19.5103 12.8457 19.2378 12.7269 18.9772 12.5851C18.747 12.4626 18.531 12.3152 18.3331 12.1455L18.9772 11.1486C19.0491 11.0381 19.1439 10.9444 19.2552 10.8738C19.3824 10.8019 19.5269 10.7665 19.6729 10.7716C19.8235 10.7688 19.9725 10.8039 20.1059 10.8738L20.5236 11.1013C20.6909 11.1917 20.8655 11.2678 21.0457 11.3288C21.2901 11.4047 21.5455 11.4392 21.8013 11.4311C21.9853 11.4349 22.169 11.4129 22.347 11.3657C22.4774 11.3308 22.5993 11.2696 22.7053 11.186C22.789 11.1172 22.8561 11.0304 22.9015 10.9321C22.9426 10.8418 22.964 10.7438 22.9641 10.6447C22.9665 10.5612 22.951 10.4783 22.9186 10.4014C22.8862 10.3245 22.8376 10.2555 22.7762 10.199C22.6319 10.0686 22.4655 9.96492 22.2849 9.89288C22.0586 9.80072 21.827 9.72218 21.5914 9.65768C21.3312 9.5844 21.0671 9.50142 20.7989 9.40873C20.5281 9.31378 20.2637 9.20126 20.0076 9.07187C19.7519 8.94281 19.5181 8.77444 19.3146 8.57288C19.1038 8.36074 18.9359 8.10997 18.82 7.8343C18.5575 7.13765 18.5721 6.36687 18.8607 5.68063C19.0165 5.32685 19.2507 5.01306 19.5454 4.76289C19.8838 4.48182 20.274 4.26974 20.6939 4.13861C21.2144 3.97469 21.758 3.89655 22.3036 3.90725C22.6292 3.90629 22.9542 3.93517 23.2746 3.99353C23.575 4.05367 23.8693 4.14104 24.1539 4.25456C24.4159 4.3539 24.6677 4.4785 24.9057 4.62661C25.123 4.76066 25.3256 4.91723 25.5102 5.09372L24.8864 6.04223Z" fill="#1A2A36"/>
<path d="M30.9374 15.4724C30.8724 15.629 30.7677 15.7659 30.6335 15.8697C30.4592 15.9676 30.2598 16.0118 30.0604 15.9966H28.3617C28.3218 15.9974 28.2823 15.988 28.247 15.9692C28.2117 15.9504 28.1818 15.9229 28.1601 15.8894C28.1384 15.8558 28.1256 15.8172 28.123 15.7773C28.1204 15.7374 28.1281 15.6975 28.1452 15.6614L29.7713 12.3252L25.9926 3.88142H28.4436C28.6216 3.87077 28.7981 3.92011 28.9448 4.02155C29.0564 4.10639 29.1421 4.22054 29.1926 4.35128L30.7913 8.43988C30.9315 8.79386 31.0479 9.15682 31.1397 9.52633C31.199 9.34004 31.265 9.15704 31.337 8.97679C31.409 8.79654 31.4771 8.61299 31.5458 8.42724L33.0015 4.35293C33.0551 4.21225 33.1544 4.09364 33.2834 4.01606C33.4173 3.93004 33.5733 3.88461 33.7324 3.88527H35.9685L30.9374 15.4724Z" fill="#1A2A36"/>
<path d="M42.3789 6.04223C42.3222 6.13759 42.2439 6.21833 42.1503 6.27799C42.0558 6.32828 41.9496 6.35255 41.8426 6.34832C41.7072 6.34758 41.5734 6.31954 41.4491 6.26589L41.0243 6.0862C40.8561 6.01699 40.6842 5.95701 40.5094 5.9065C40.2965 5.84865 40.0766 5.8209 39.856 5.82406C39.5726 5.80618 39.2905 5.87479 39.0471 6.0208C38.9572 6.07994 38.8841 6.16119 38.8347 6.25676C38.7853 6.35233 38.7614 6.45899 38.7651 6.56649C38.763 6.64548 38.7782 6.72398 38.8098 6.79643C38.8413 6.86888 38.8883 6.93352 38.9476 6.9858C39.0924 7.11095 39.2576 7.21022 39.4361 7.27925C39.6609 7.37199 39.8906 7.45235 40.1242 7.51995C40.3808 7.59524 40.6462 7.67987 40.9122 7.77384C41.1808 7.8676 41.4434 7.97771 41.6986 8.10356C41.9491 8.22494 42.1812 8.38088 42.3883 8.56683C42.5936 8.75487 42.759 8.98232 42.8746 9.23563C43.004 9.53297 43.0666 9.85504 43.0582 10.1792C43.0628 10.6058 42.9774 11.0287 42.8076 11.4201C42.6392 11.8006 42.3835 12.1361 42.0613 12.3993C41.6978 12.6897 41.2812 12.9062 40.8347 13.0368C40.2905 13.1969 39.7252 13.2736 39.1581 13.2643C38.8399 13.2639 38.5224 13.2344 38.2096 13.1764C37.8988 13.1195 37.5925 13.0407 37.2929 12.9406C37.0107 12.8462 36.7375 12.727 36.4763 12.5845C36.2462 12.4619 36.0303 12.3145 35.8322 12.1449L36.4763 11.1469C36.5484 11.0366 36.6432 10.9429 36.7544 10.8722C36.8812 10.8001 37.0256 10.7647 37.1715 10.77C37.3223 10.7668 37.4715 10.802 37.6051 10.8722L38.0227 11.0997C38.19 11.1901 38.3647 11.2662 38.5448 11.3272C38.7892 11.4032 39.0446 11.4377 39.3004 11.4294C39.4845 11.4334 39.6682 11.4114 39.8461 11.364C39.9763 11.3295 40.098 11.2683 40.2033 11.1843C40.2844 11.1198 40.3501 11.0379 40.3955 10.9447C40.441 10.8516 40.465 10.7494 40.466 10.6458C40.4684 10.5623 40.4529 10.4794 40.4204 10.4025C40.388 10.3256 40.3395 10.2566 40.278 10.2001C40.1335 10.0698 39.967 9.96634 39.7862 9.89453C39.5603 9.80177 39.3288 9.72304 39.0932 9.65877C38.8333 9.58568 38.5712 9.50271 38.3008 9.40984C38.03 9.31506 37.7656 9.20271 37.5094 9.07351C37.2526 8.9472 37.0172 8.78123 36.8121 8.58167C36.6005 8.37015 36.4325 8.11922 36.3175 7.84308C36.0548 7.14646 36.0694 6.37563 36.3581 5.68943C36.5133 5.33525 36.7476 5.02131 37.0429 4.77169C37.3812 4.49048 37.7714 4.27838 38.1914 4.14741C38.7123 3.98382 39.2563 3.90569 39.8021 3.91605C40.1274 3.91513 40.4521 3.94419 40.7721 4.00288C41.0729 4.05729 41.3682 4.13915 41.6541 4.24742C41.9165 4.34975 42.1683 4.47749 42.4059 4.6288C42.6213 4.76297 42.8219 4.91955 43.0043 5.09592L42.3789 6.04223Z" fill="#1A2A36"/>
<path d="M44.1913 12.9022V0.170904C44.1915 0.153295 44.1952 0.135898 44.2022 0.119712C44.2091 0.103526 44.2192 0.0888674 44.2318 0.0765689C44.2444 0.0642705 44.2593 0.0545716 44.2756 0.0480335C44.292 0.0414954 44.3095 0.0382396 44.3271 0.0384574H45.8301C46.1273 0.0350835 46.4138 0.149796 46.6265 0.357403C46.8393 0.56501 46.961 0.848547 46.9649 1.14579V4.85411C47.2934 4.57704 47.66 4.34866 48.0535 4.17597C48.4971 3.99444 48.9735 3.90687 49.4527 3.91879C49.9145 3.91002 50.373 3.99761 50.7991 4.17597C51.1774 4.33837 51.5151 4.58231 51.7882 4.89038C52.0634 5.20901 52.2705 5.58063 52.3966 5.98233C52.538 6.4274 52.6084 6.89194 52.6054 7.35893V12.9093C52.6039 13.0052 52.5645 13.0965 52.4958 13.1634C52.4271 13.2303 52.3347 13.2671 52.2389 13.266H50.1945C50.1471 13.2666 50.1001 13.2578 50.056 13.2402C50.012 13.2226 49.9719 13.1965 49.938 13.1633C49.904 13.1302 49.8769 13.0907 49.8583 13.0472C49.8396 13.0036 49.8297 12.9567 49.8291 12.9093V7.35948C49.8515 6.98771 49.7404 6.62016 49.5159 6.32304C49.4006 6.19531 49.2576 6.09564 49.0978 6.03163C48.9381 5.96763 48.7659 5.94099 48.5943 5.95375C48.2986 5.95331 48.0067 6.01962 47.7403 6.14774C47.4591 6.28358 47.1986 6.45862 46.9665 6.6676V12.9099C46.9651 13.0057 46.9257 13.0971 46.857 13.164C46.7883 13.2308 46.6958 13.2677 46.6 13.2665H44.5579C44.4602 13.2673 44.3661 13.2294 44.2963 13.161C44.2621 13.1273 44.2351 13.0869 44.2171 13.0424C44.199 12.9979 44.1903 12.9502 44.1913 12.9022Z" fill="#1A2A36"/>
<path d="M58.1876 15.6422V3.88198H59.905C60.0576 3.87653 60.2086 3.91588 60.3391 3.99518C60.4588 4.07617 60.546 4.19685 60.5853 4.3359L60.7941 5.17725C60.9714 4.98674 61.1642 4.81138 61.3706 4.65299C61.7908 4.32821 62.2761 4.09785 62.7934 3.97759C63.0853 3.91179 63.3838 3.87971 63.6831 3.88198C64.1493 3.87796 64.6098 3.98595 65.0256 4.19686C65.4454 4.41434 65.8095 4.72531 66.0901 5.1058C66.4084 5.54702 66.6449 6.04175 66.7886 6.56649C66.9667 7.20192 67.0524 7.8597 67.043 8.51957C67.0492 9.16036 66.9512 9.7979 66.7528 10.4073C66.575 10.9538 66.299 11.4633 65.9384 11.9108C65.5975 12.3294 65.1701 12.6693 64.6855 12.9071C64.1826 13.1496 63.6302 13.2721 63.072 13.2649C62.6569 13.2756 62.2437 13.2064 61.8548 13.061C61.5301 12.9286 61.2284 12.7456 60.9612 12.5186V15.6433C60.9606 15.6907 60.9507 15.7376 60.932 15.7811C60.9134 15.8247 60.8863 15.8642 60.8523 15.8973C60.8184 15.9304 60.7783 15.9566 60.7343 15.9742C60.6902 15.9918 60.6432 16.0005 60.5958 16H58.5569C58.4597 16.0013 58.3659 15.9641 58.2959 15.8966C58.2616 15.8638 58.2342 15.8243 58.2156 15.7806C58.197 15.7368 58.1875 15.6897 58.1876 15.6422ZM62.7142 5.9532C62.5296 5.95069 62.3452 5.96913 62.1647 6.00816C62.0067 6.04381 61.8534 6.09785 61.708 6.16918C61.5665 6.23993 61.4354 6.32979 61.3184 6.43625C61.1907 6.55252 61.0704 6.67679 60.9585 6.80829V10.6551C61.1431 10.8662 61.3759 11.0296 61.6371 11.1316C61.8834 11.2224 62.144 11.2683 62.4065 11.2673C62.6498 11.2702 62.8907 11.2194 63.1121 11.1184C63.3369 11.012 63.5298 10.8485 63.6715 10.6441C63.8471 10.3857 63.9731 10.0968 64.043 9.79231C64.1393 9.37398 64.1841 8.94547 64.1766 8.51628C64.1847 8.11071 64.1497 7.70544 64.0722 7.30728C64.0201 7.02788 63.9197 6.75972 63.7754 6.51484C63.6651 6.33065 63.5056 6.18087 63.3149 6.08235C63.1274 5.99345 62.9217 5.94924 62.7142 5.9532Z" fill="#1A2A36"/>
<path d="M17.4945 7.45786C17.4991 6.97026 17.4142 6.48596 17.2439 6.02904C17.0857 5.60057 16.8368 5.2113 16.5143 4.8878C16.1919 4.5643 15.8034 4.31419 15.3755 4.15455C14.8916 3.97067 14.3774 3.88004 13.8598 3.88747C13.1145 3.88223 12.3735 4.00185 11.6677 4.24137C11.0629 4.45058 10.498 4.7609 9.99709 5.15911C9.94379 5.20097 9.90746 5.26072 9.89483 5.3273C9.8822 5.39389 9.89412 5.4628 9.92839 5.52127L10.3092 6.16477C10.3862 6.29956 10.4932 6.41482 10.6219 6.50165C10.7665 6.59419 10.9356 6.6411 11.1072 6.63628C11.2971 6.64156 11.4861 6.60674 11.6616 6.53408C11.8163 6.46593 11.9756 6.38716 12.1398 6.29777C12.3195 6.20205 12.5065 6.12083 12.6992 6.05487C12.9618 5.97854 13.2348 5.94405 13.5081 5.95265C13.6831 5.94177 13.8585 5.96796 14.0227 6.02952C14.1869 6.09107 14.3363 6.1866 14.461 6.30986C14.715 6.64069 14.8347 7.0552 14.7963 7.47049V7.85792C13.906 7.83843 13.017 7.93299 12.1508 8.13929C11.562 8.28041 11 8.51611 10.4867 8.83721C10.1221 9.06471 9.82312 9.38353 9.61955 9.76209C9.46062 10.068 9.37483 10.4066 9.36896 10.7513C9.36166 11.1219 9.42875 11.4902 9.56625 11.8344C9.68935 12.1354 9.88044 12.4038 10.1246 12.6186C10.3811 12.8377 10.6806 13.0005 11.0039 13.0967C11.378 13.2098 11.7671 13.2654 12.1579 13.2616C12.4474 13.2642 12.7364 13.2393 13.0212 13.1874C13.2727 13.1396 13.5179 13.0632 13.7521 12.9599C13.9853 12.8567 14.2086 12.7325 14.4193 12.5889C14.5385 12.5082 14.6616 12.4186 14.7858 12.3224V13.161H16.352C16.6491 13.1644 16.9355 13.0496 17.1481 12.842C17.3606 12.6344 17.4821 12.3508 17.4857 12.0537L17.4945 7.45786ZM13.9774 11.2854C13.6813 11.4136 13.3609 11.4762 13.0383 11.469C12.7709 11.4868 12.5047 11.4202 12.2771 11.2788C12.1839 11.1986 12.1116 11.0969 12.0665 10.9825C12.0214 10.8681 12.0049 10.7444 12.0183 10.6221C12.0175 10.4673 12.0592 10.3153 12.1387 10.1825C12.2472 10.0243 12.3975 9.89934 12.5728 9.82144C12.843 9.69582 13.1287 9.60656 13.4224 9.55601C13.8745 9.47957 14.3328 9.44535 14.7913 9.45379V10.6952C14.5569 10.9383 14.2813 11.1381 13.9774 11.2854Z" fill="#1A2A36"/>
<path d="M54.3782 13.0605L56.5302 11.8465C56.6026 11.8061 56.6629 11.7473 56.705 11.6759C56.7471 11.6045 56.7695 11.5233 56.7698 11.4404V6.64178C56.7689 6.60011 56.7571 6.55939 56.7357 6.52364C56.7143 6.48789 56.6839 6.45833 56.6476 6.43787C56.6113 6.41741 56.5703 6.40675 56.5286 6.40695C56.4869 6.40715 56.446 6.41819 56.4099 6.439L54.2667 7.64799C54.1944 7.68822 54.1342 7.74692 54.0921 7.81808C54.05 7.88925 54.0275 7.97032 54.0271 8.05301L54.0205 12.856C54.0213 12.8975 54.0329 12.9381 54.0541 12.9738C54.0753 13.0094 54.1054 13.039 54.1414 13.0596C54.1775 13.0802 54.2182 13.0911 54.2597 13.0912C54.3012 13.0914 54.342 13.0808 54.3782 13.0605Z" fill="#1A2A36"/>
<defs>
<linearGradient id="paint0_linear_0_10" x1="25.3425" y1="9.264" x2="35.2791" y2="-17.5333" gradientUnits="userSpaceOnUse">
<stop stop-color="#8ED3DA"/>
<stop offset="1" stop-color="#56C4C8"/>
</linearGradient>
<linearGradient id="paint1_linear_0_10" x1="385.635" y1="835.6" x2="385.562" y2="838.241" gradientUnits="userSpaceOnUse">
<stop stop-color="#8ED3DA"/>
<stop offset="1" stop-color="#56C4C8"/>
</linearGradient>
</defs>
</svg>
