<svg width="16" height="16" viewBox="0 0 16 16" fill="none" xmlns="http://www.w3.org/2000/svg">
<path d="M9.41327 7.99936L15.7059 1.70674C15.8934 1.51925 15.9987 1.26495 15.9987 0.999788C15.9987 0.734628 15.8934 0.480328 15.7059 0.292831C15.5184 0.105335 15.2641 0 14.9989 0C14.7338 0 14.4795 0.105335 14.292 0.292831L7.99936 6.58545L1.70674 0.292831C1.61391 0.199992 1.50369 0.126349 1.38239 0.0761045C1.26109 0.0258605 1.13108 0 0.999788 0C0.868494 0 0.738486 0.0258605 0.617186 0.0761045C0.495886 0.126349 0.38567 0.199992 0.292831 0.292831C0.105335 0.480328 0 0.734628 0 0.999788C0 1.26495 0.105335 1.51925 0.292831 1.70674L6.58545 7.99936L0.292831 14.292C0.105335 14.4795 0 14.7338 0 14.9989C0 15.2641 0.105335 15.5184 0.292831 15.7059C0.480328 15.8934 0.734628 15.9987 0.999788 15.9987C1.26495 15.9987 1.51925 15.8934 1.70674 15.7059L7.99936 9.41327L14.292 15.7059C14.3846 15.7991 14.4948 15.873 14.6161 15.9235C14.7374 15.9739 14.8675 15.9999 14.9989 15.9999C15.1303 15.9999 15.2604 15.9739 15.3818 15.9235C15.5031 15.873 15.6132 15.7991 15.7059 15.7059C15.7988 15.6131 15.8726 15.5029 15.9229 15.3816C15.9732 15.2603 15.9991 15.1303 15.9991 14.9989C15.9991 14.8676 15.9732 14.7376 15.9229 14.6163C15.8726 14.495 15.7988 14.3848 15.7059 14.292L9.41327 7.99936Z" fill="#5C5F62"/>
</svg>
