<svg width="57" height="11" viewBox="0 0 57 11" fill="none" xmlns="http://www.w3.org/2000/svg">
<path d="M0 10.4342L3.68591 0.43649H4.91917L8.60508 10.4342H7.29561L6.29099 7.57275H2.31409L1.30947 10.4342H0ZM4.24711 2.05081L2.68129 6.5127H5.92379L4.35797 2.05081H4.24711ZM12.5473 10.5658C10.6559 10.5658 9.4157 9.03464 9.4157 6.7067V6.69284C9.4157 4.35104 10.649 2.83372 12.5473 2.83372C13.5727 2.83372 14.4665 3.34642 14.8753 4.14319H14.9861V0H16.1917V10.4342H14.9861V9.24249H14.8753C14.418 10.0739 13.5866 10.5658 12.5473 10.5658ZM12.8245 9.49885C14.1824 9.49885 15.0139 8.43187 15.0139 6.7067V6.69284C15.0139 4.96767 14.1824 3.90069 12.8245 3.90069C11.4596 3.90069 10.649 4.95381 10.649 6.69284V6.7067C10.649 8.44573 11.4596 9.49885 12.8245 9.49885ZM21.2633 10.5658C19.3718 10.5658 18.1316 9.03464 18.1316 6.7067V6.69284C18.1316 4.35104 19.3649 2.83372 21.2633 2.83372C22.2887 2.83372 23.1824 3.34642 23.5912 4.14319H23.7021V0H24.9076V10.4342H23.7021V9.24249H23.5912C23.1339 10.0739 22.3025 10.5658 21.2633 10.5658ZM21.5404 9.49885C22.8984 9.49885 23.7298 8.43187 23.7298 6.7067V6.69284C23.7298 4.96767 22.8984 3.90069 21.5404 3.90069C20.1755 3.90069 19.3649 4.95381 19.3649 6.69284V6.7067C19.3649 8.44573 20.1755 9.49885 21.5404 9.49885ZM31.2125 10.4342V2.96536H32.418V4.08776H32.5289C32.903 3.29792 33.6028 2.83372 34.7044 2.83372C36.3811 2.83372 37.3164 3.82448 37.3164 5.59815V10.4342H36.1109V5.88915C36.1109 4.54503 35.5566 3.90069 34.3649 3.90069C33.1732 3.90069 32.418 4.70439 32.418 6.01386V10.4342H31.2125ZM42.5681 10.5658C40.4411 10.5658 39.1247 9.097 39.1247 6.7067V6.69284C39.1247 4.29561 40.4411 2.83372 42.5681 2.83372C44.6952 2.83372 46.0115 4.29561 46.0115 6.69284V6.7067C46.0115 9.097 44.6952 10.5658 42.5681 10.5658ZM42.5681 9.49885C43.9815 9.49885 44.7783 8.46651 44.7783 6.7067V6.69284C44.7783 4.9261 43.9815 3.90069 42.5681 3.90069C41.1547 3.90069 40.358 4.9261 40.358 6.69284V6.7067C40.358 8.46651 41.1547 9.49885 42.5681 9.49885ZM49.0462 10.4342L46.9538 2.96536H48.1594L49.6282 8.93764H49.739L51.4088 2.96536H52.552L54.2217 8.93764H54.3326L55.8014 2.96536H57L54.9076 10.4342H53.6952L52.0254 4.65589H51.9145L50.2517 10.4342H49.0462Z" fill="#97593A"/>
</svg>
