<svg width="63" height="47" viewBox="0 0 63 47" fill="none" xmlns="http://www.w3.org/2000/svg">
<path d="M7.59572 17.2559C6.36372 17.2559 5.25972 17.0559 4.28372 16.6559C3.30772 16.2559 2.52372 15.6639 1.93172 14.8799C1.35572 14.0959 1.05172 13.1519 1.01972 12.0479H5.38772C5.45172 12.6719 5.66772 13.1519 6.03572 13.4879C6.40372 13.8079 6.88372 13.9679 7.47572 13.9679C8.08372 13.9679 8.56372 13.8319 8.91572 13.5599C9.26772 13.2719 9.44372 12.8799 9.44372 12.3839C9.44372 11.9679 9.29972 11.6239 9.01172 11.3519C8.73972 11.0799 8.39572 10.8559 7.97972 10.6799C7.57972 10.5039 7.00372 10.3039 6.25172 10.0799C5.16372 9.74389 4.27572 9.40789 3.58772 9.07189C2.89972 8.73589 2.30772 8.23989 1.81172 7.58389C1.31572 6.92789 1.06772 6.07189 1.06772 5.01589C1.06772 3.44789 1.63572 2.22389 2.77172 1.34389C3.90772 0.44789 5.38772 -0.000109673 7.21172 -0.000109673C9.06772 -0.000109673 10.5637 0.44789 11.6997 1.34389C12.8357 2.22389 13.4437 3.45589 13.5237 5.03989H9.08372C9.05172 4.49589 8.85172 4.07189 8.48372 3.76789C8.11572 3.44789 7.64372 3.28789 7.06772 3.28789C6.57172 3.28789 6.17172 3.42389 5.86772 3.69589C5.56372 3.95189 5.41172 4.32789 5.41172 4.82389C5.41172 5.36789 5.66772 5.79189 6.17972 6.09589C6.69172 6.39989 7.49172 6.72789 8.57972 7.07989C9.66772 7.44789 10.5477 7.79989 11.2197 8.13589C11.9077 8.47189 12.4997 8.95989 12.9957 9.59989C13.4917 10.2399 13.7397 11.0639 13.7397 12.0719C13.7397 13.0319 13.4917 13.9039 12.9957 14.6879C12.5157 15.4719 11.8117 16.0959 10.8837 16.5599C9.95572 17.0239 8.85972 17.2559 7.59572 17.2559ZM26.7533 14.1119H20.4653L19.4573 17.0879H15.1613L21.2573 0.23989H26.0093L32.1053 17.0879H27.7613L26.7533 14.1119ZM25.6973 10.9439L23.6093 4.77589L21.5453 10.9439H25.6973ZM49.7767 0.23989L43.8007 17.0879H38.6647L32.6887 0.23989H37.0567L41.2327 12.9599L45.4327 0.23989H49.7767ZM55.5959 3.52789V6.93589H61.0919V10.1039H55.5959V13.7999H61.8119V17.0879H51.4919V0.23989H61.8119V3.52789H55.5959Z" fill="url(#paint0_linear_3253_7764)"/>
<path d="M7.54675 39.2399C7.86675 40.9252 8.84808 41.7679 10.4908 41.7679C11.6214 41.7679 12.4214 41.2666 12.8908 40.2639C13.3601 39.2612 13.5948 37.6292 13.5948 35.3679C13.1254 36.0292 12.4854 36.5412 11.6748 36.9039C10.8641 37.2666 9.95742 37.4479 8.95475 37.4479C7.58942 37.4479 6.37342 37.1706 5.30675 36.6159C4.24008 36.0399 3.39742 35.1972 2.77875 34.0879C2.18142 32.9572 1.88275 31.5919 1.88275 29.9919C1.88275 28.4132 2.20275 27.0372 2.84275 25.8639C3.50408 24.6906 4.43208 23.7839 5.62675 23.1439C6.84275 22.5039 8.27208 22.1839 9.91475 22.1839C13.0721 22.1839 15.2801 23.1652 16.5388 25.1279C17.7974 27.0906 18.4268 29.9812 18.4268 33.7999C18.4268 36.5732 18.1708 38.8666 17.6588 40.6799C17.1681 42.4719 16.3254 43.8372 15.1308 44.7759C13.9574 45.7146 12.3468 46.1839 10.2988 46.1839C8.67742 46.1839 7.29075 45.8639 6.13875 45.2239C5.00808 44.5839 4.13342 43.7412 3.51475 42.6959C2.91742 41.6506 2.57608 40.4986 2.49075 39.2399H7.54675ZM10.2028 33.1279C11.0988 33.1279 11.8134 32.8612 12.3468 32.3279C12.8801 31.7732 13.1468 31.0266 13.1468 30.0879C13.1468 29.0639 12.8694 28.2746 12.3148 27.7199C11.7601 27.1652 11.0134 26.8879 10.0748 26.8879C9.13608 26.8879 8.38942 27.1759 7.83475 27.7519C7.30142 28.3066 7.03475 29.0746 7.03475 30.0559C7.03475 30.9732 7.30142 31.7199 7.83475 32.2959C8.38942 32.8506 9.17875 33.1279 10.2028 33.1279ZM20.7703 27.8159V22.7279H29.6343V46.0879H23.9383V27.8159H20.7703ZM32.9295 28.6159C32.9295 26.8879 33.4202 25.5546 34.4015 24.6159C35.4042 23.6772 36.6948 23.2079 38.2735 23.2079C39.8522 23.2079 41.1322 23.6772 42.1135 24.6159C43.0948 25.5546 43.5855 26.8879 43.5855 28.6159C43.5855 30.3439 43.0948 31.6772 42.1135 32.6159C41.1322 33.5546 39.8522 34.0239 38.2735 34.0239C36.6948 34.0239 35.4042 33.5546 34.4015 32.6159C33.4202 31.6772 32.9295 30.3439 32.9295 28.6159ZM54.6575 23.5599L42.3375 46.0879H37.0575L49.3775 23.5599H54.6575ZM38.2415 26.4079C37.2175 26.4079 36.7055 27.1439 36.7055 28.6159C36.7055 30.0666 37.2175 30.7919 38.2415 30.7919C38.7322 30.7919 39.1162 30.6106 39.3935 30.2479C39.6708 29.8852 39.8095 29.3412 39.8095 28.6159C39.8095 27.1439 39.2868 26.4079 38.2415 26.4079ZM48.1615 41.0319C48.1615 39.3039 48.6522 37.9706 49.6335 37.0319C50.6148 36.0932 51.8948 35.6239 53.4735 35.6239C55.0522 35.6239 56.3322 36.0932 57.3135 37.0319C58.2948 37.9706 58.7855 39.3039 58.7855 41.0319C58.7855 42.7599 58.2948 44.0932 57.3135 45.0319C56.3322 45.9706 55.0522 46.4399 53.4735 46.4399C51.8948 46.4399 50.6148 45.9706 49.6335 45.0319C48.6522 44.0932 48.1615 42.7599 48.1615 41.0319ZM53.4415 38.8239C52.9508 38.8239 52.5668 39.0052 52.2895 39.3679C52.0335 39.7306 51.9055 40.2852 51.9055 41.0319C51.9055 42.4826 52.4175 43.2079 53.4415 43.2079C53.9322 43.2079 54.3162 43.0266 54.5935 42.6639C54.8708 42.3012 55.0095 41.7572 55.0095 41.0319C55.0095 40.3066 54.8708 39.7626 54.5935 39.3999C54.3162 39.0159 53.9322 38.8239 53.4415 38.8239Z" fill="url(#paint1_linear_3253_7764)"/>
<defs>
<linearGradient id="paint0_linear_3253_7764" x1="5.28832" y1="-3.12322" x2="59.0196" y2="24.7586" gradientUnits="userSpaceOnUse">
<stop stop-color="#FBC2C2"/>
<stop offset="1" stop-color="#FFE0E0" stop-opacity="0.75"/>
</linearGradient>
<linearGradient id="paint1_linear_3253_7764" x1="-6.35036" y1="21.0975" x2="60.159" y2="45.6573" gradientUnits="userSpaceOnUse">
<stop stop-color="#FFBCB2"/>
<stop offset="1" stop-color="#FFDADA" stop-opacity="0.7"/>
</linearGradient>
</defs>
</svg>
