<svg width="84" height="32" viewBox="0 0 84 32" fill="none" xmlns="http://www.w3.org/2000/svg">
<path d="M0 16C0 7.16345 7.16344 0 16 0H68C76.8366 0 84 7.16345 84 16C84 24.8366 76.8366 32 68 32H16C7.16344 32 0 24.8366 0 16Z" fill="#FDF4ED"/>
<path d="M13.4717 21L17.1084 11.1357H18.3252L21.9619 21H20.6699L19.6787 18.1768H15.7549L14.7637 21H13.4717ZM17.6621 12.7285L16.1172 17.1309H19.3164L17.7715 12.7285H17.6621ZM25.8516 21.1299C23.9854 21.1299 22.7617 19.6191 22.7617 17.3223V17.3086C22.7617 14.998 23.9785 13.501 25.8516 13.501C26.8633 13.501 27.7451 14.0068 28.1484 14.793H28.2578V10.7051H29.4473V21H28.2578V19.8242H28.1484C27.6973 20.6445 26.877 21.1299 25.8516 21.1299ZM26.125 20.0771C27.4648 20.0771 28.2852 19.0244 28.2852 17.3223V17.3086C28.2852 15.6064 27.4648 14.5537 26.125 14.5537C24.7783 14.5537 23.9785 15.5928 23.9785 17.3086V17.3223C23.9785 19.0381 24.7783 20.0771 26.125 20.0771ZM34.4512 21.1299C32.585 21.1299 31.3613 19.6191 31.3613 17.3223V17.3086C31.3613 14.998 32.5781 13.501 34.4512 13.501C35.4629 13.501 36.3447 14.0068 36.748 14.793H36.8574V10.7051H38.0469V21H36.8574V19.8242H36.748C36.2969 20.6445 35.4766 21.1299 34.4512 21.1299ZM34.7246 20.0771C36.0645 20.0771 36.8848 19.0244 36.8848 17.3223V17.3086C36.8848 15.6064 36.0645 14.5537 34.7246 14.5537C33.3779 14.5537 32.5781 15.5928 32.5781 17.3086V17.3223C32.5781 19.0381 33.3779 20.0771 34.7246 20.0771ZM44.2676 21V13.6309H45.457V14.7383H45.5664C45.9355 13.959 46.626 13.501 47.7129 13.501C49.3672 13.501 50.29 14.4785 50.29 16.2285V21H49.1006V16.5156C49.1006 15.1895 48.5537 14.5537 47.3779 14.5537C46.2021 14.5537 45.457 15.3467 45.457 16.6387V21H44.2676ZM55.4717 21.1299C53.373 21.1299 52.0742 19.6807 52.0742 17.3223V17.3086C52.0742 14.9434 53.373 13.501 55.4717 13.501C57.5703 13.501 58.8691 14.9434 58.8691 17.3086V17.3223C58.8691 19.6807 57.5703 21.1299 55.4717 21.1299ZM55.4717 20.0771C56.8662 20.0771 57.6523 19.0586 57.6523 17.3223V17.3086C57.6523 15.5654 56.8662 14.5537 55.4717 14.5537C54.0771 14.5537 53.291 15.5654 53.291 17.3086V17.3223C53.291 19.0586 54.0771 20.0771 55.4717 20.0771ZM61.8633 21L59.7988 13.6309H60.9883L62.4375 19.5234H62.5469L64.1943 13.6309H65.3223L66.9697 19.5234H67.0791L68.5283 13.6309H69.7109L67.6465 21H66.4502L64.8027 15.2988H64.6934L63.0527 21H61.8633Z" fill="#97593A"/>
</svg>
