<svg id="Layer_1" data-name="Layer 1" xmlns="http://www.w3.org/2000/svg" viewBox="0 0 156 130"><defs><style>.cls-1{fill:#00aa13;}.cls-2{fill:#fff;}</style></defs><title>experience horizontalArtboard 2 copy 69</title><circle class="cls-1" cx="78" cy="65" r="24"/><path class="cls-2" d="M90.83,59.33A3.16,3.16,0,0,0,89.48,57c-.75-.54-1.53-1.06-2.32-1.57C84,56.84,80,58.91,76.7,60.62a3.48,3.48,0,0,0-1.87,3c0,1.64-.07,3.28-.07,4.93L72.3,64.47l-2.47,1.61c0-1.56.06-3.11.14-4.67a3.52,3.52,0,0,1,1.87-2.92c3.43-1.8,7.64-4,10.91-5.62-1.1-.57-2.21-1.12-3.35-1.62a3.21,3.21,0,0,0-2.49,0,56,56,0,0,0-10.22,5.47A3.16,3.16,0,0,0,65.32,59a71.05,71.05,0,0,0-.21,10.72A3.09,3.09,0,0,0,66.25,72a49.07,49.07,0,0,0,10.11,6.72,3.29,3.29,0,0,0,2.84,0,69,69,0,0,0,10.28-6.38A3.13,3.13,0,0,0,90.77,70,70.37,70.37,0,0,0,90.83,59.33Z"/></svg>